<svg xmlns="http://www.w3.org/2000/svg" xmlns:xlink="http://www.w3.org/1999/xlink" width="120" zoomAndPan="magnify" viewBox="0 0 90 33.749998" height="45" preserveAspectRatio="xMidYMid meet" version="1.0"><defs><g/><clipPath id="975a2eaf32"><path d="M 3 0 L 67 0 L 67 33.5 L 3 33.5 Z M 3 0 " clip-rule="nonzero"/></clipPath><clipPath id="36ebfc671a"><rect x="0" width="64" y="0" height="34"/></clipPath><clipPath id="9836352c50"><path d="M 65 0 L 87 0 L 87 33.5 L 65 33.5 Z M 65 0 " clip-rule="nonzero"/></clipPath><clipPath id="9a51d4fbe0"><path d="M 17 20 L 21.570312 20 L 21.570312 25 L 17 25 Z M 17 20 " clip-rule="nonzero"/></clipPath><clipPath id="65cf01a9e4"><rect x="0" width="22" y="0" height="34"/></clipPath></defs><g clip-path="url(#975a2eaf32)"><g transform="matrix(1, 0, 0, 1, 3, -0.000000000000001048)"><g clip-path="url(#36ebfc671a)"><g fill="#222222" fill-opacity="1"><g transform="translate(0.681068, 24.434218)"><g><path d="M 1.390625 0 L 1.390625 -15.953125 L 8.25 -15.953125 C 9.3125 -15.953125 10.285156 -15.707031 11.171875 -15.21875 C 12.054688 -14.726562 12.765625 -14.054688 13.296875 -13.203125 C 13.828125 -12.347656 14.09375 -11.359375 14.09375 -10.234375 C 14.09375 -9.109375 13.828125 -8.109375 13.296875 -7.234375 C 12.765625 -6.359375 12.054688 -5.675781 11.171875 -5.1875 C 10.296875 -4.707031 9.320312 -4.46875 8.25 -4.46875 L 5.21875 -4.46875 L 5.21875 0 Z M 5.21875 -7.671875 L 7.8125 -7.671875 C 8.269531 -7.671875 8.679688 -7.769531 9.046875 -7.96875 C 9.410156 -8.164062 9.707031 -8.453125 9.9375 -8.828125 C 10.164062 -9.210938 10.28125 -9.671875 10.28125 -10.203125 C 10.28125 -10.734375 10.164062 -11.1875 9.9375 -11.5625 C 9.707031 -11.945312 9.40625 -12.238281 9.03125 -12.4375 C 8.65625 -12.644531 8.25 -12.75 7.8125 -12.75 L 5.21875 -12.75 Z M 5.21875 -7.671875 "/></g></g></g><g fill="#222222" fill-opacity="1"><g transform="translate(13.483636, 24.434218)"><g><path d="M 5.65625 0 C 4.757812 0 3.945312 -0.207031 3.21875 -0.625 C 2.488281 -1.039062 1.90625 -1.601562 1.46875 -2.3125 C 1.03125 -3.019531 0.8125 -3.820312 0.8125 -4.71875 C 0.8125 -5.382812 0.957031 -6.007812 1.25 -6.59375 C 1.550781 -7.175781 1.953125 -7.679688 2.453125 -8.109375 C 1.972656 -8.515625 1.59375 -9 1.3125 -9.5625 C 1.03125 -10.125 0.890625 -10.71875 0.890625 -11.34375 C 0.890625 -12.226562 1.101562 -13.015625 1.53125 -13.703125 C 1.957031 -14.390625 2.523438 -14.9375 3.234375 -15.34375 C 3.953125 -15.75 4.742188 -15.953125 5.609375 -15.953125 L 12.328125 -15.953125 L 12.328125 -12.75 L 6.203125 -12.75 C 5.910156 -12.75 5.640625 -12.679688 5.390625 -12.546875 C 5.148438 -12.410156 4.957031 -12.226562 4.8125 -12 C 4.675781 -11.769531 4.609375 -11.503906 4.609375 -11.203125 C 4.609375 -10.921875 4.675781 -10.660156 4.8125 -10.421875 C 4.957031 -10.179688 5.148438 -10 5.390625 -9.875 C 5.640625 -9.75 5.910156 -9.6875 6.203125 -9.6875 L 11.546875 -9.6875 L 11.546875 -6.5 L 6.3125 -6.5 C 5.988281 -6.5 5.695312 -6.421875 5.4375 -6.265625 C 5.1875 -6.109375 4.984375 -5.910156 4.828125 -5.671875 C 4.679688 -5.429688 4.609375 -5.148438 4.609375 -4.828125 C 4.609375 -4.523438 4.679688 -4.25 4.828125 -4 C 4.984375 -3.75 5.1875 -3.554688 5.4375 -3.421875 C 5.695312 -3.285156 5.988281 -3.21875 6.3125 -3.21875 L 12.328125 -3.21875 L 12.328125 0 Z M 5.65625 0 "/></g></g></g><g fill="#222222" fill-opacity="1"><g transform="translate(24.82822, 24.434218)"><g><path d="M 9.59375 0 C 8.625 0 7.769531 -0.210938 7.03125 -0.640625 C 6.289062 -1.078125 5.710938 -1.660156 5.296875 -2.390625 C 4.878906 -3.117188 4.671875 -3.929688 4.671875 -4.828125 L 4.671875 -12.75 L 0.34375 -12.75 L 0.34375 -15.953125 L 12.796875 -15.953125 L 12.796875 -12.75 L 8.5 -12.75 L 8.5 -4.484375 C 8.5 -4.140625 8.617188 -3.835938 8.859375 -3.578125 C 9.097656 -3.316406 9.398438 -3.1875 9.765625 -3.1875 L 11.03125 -3.1875 L 11.03125 0 Z M 9.59375 0 "/></g></g></g><g fill="#222222" fill-opacity="1"><g transform="translate(36.104463, 24.434218)"><g><path d="M 5.65625 0 C 4.757812 0 3.945312 -0.207031 3.21875 -0.625 C 2.488281 -1.039062 1.90625 -1.601562 1.46875 -2.3125 C 1.03125 -3.019531 0.8125 -3.820312 0.8125 -4.71875 C 0.8125 -5.382812 0.957031 -6.007812 1.25 -6.59375 C 1.550781 -7.175781 1.953125 -7.679688 2.453125 -8.109375 C 1.972656 -8.515625 1.59375 -9 1.3125 -9.5625 C 1.03125 -10.125 0.890625 -10.71875 0.890625 -11.34375 C 0.890625 -12.226562 1.101562 -13.015625 1.53125 -13.703125 C 1.957031 -14.390625 2.523438 -14.9375 3.234375 -15.34375 C 3.953125 -15.75 4.742188 -15.953125 5.609375 -15.953125 L 12.328125 -15.953125 L 12.328125 -12.75 L 6.203125 -12.75 C 5.910156 -12.75 5.640625 -12.679688 5.390625 -12.546875 C 5.148438 -12.410156 4.957031 -12.226562 4.8125 -12 C 4.675781 -11.769531 4.609375 -11.503906 4.609375 -11.203125 C 4.609375 -10.921875 4.675781 -10.660156 4.8125 -10.421875 C 4.957031 -10.179688 5.148438 -10 5.390625 -9.875 C 5.640625 -9.75 5.910156 -9.6875 6.203125 -9.6875 L 11.546875 -9.6875 L 11.546875 -6.5 L 6.3125 -6.5 C 5.988281 -6.5 5.695312 -6.421875 5.4375 -6.265625 C 5.1875 -6.109375 4.984375 -5.910156 4.828125 -5.671875 C 4.679688 -5.429688 4.609375 -5.148438 4.609375 -4.828125 C 4.609375 -4.523438 4.679688 -4.25 4.828125 -4 C 4.984375 -3.75 5.1875 -3.554688 5.4375 -3.421875 C 5.695312 -3.285156 5.988281 -3.21875 6.3125 -3.21875 L 12.328125 -3.21875 L 12.328125 0 Z M 5.65625 0 "/></g></g></g><g fill="#222222" fill-opacity="1"><g transform="translate(47.449047, 24.434218)"><g><path d="M 1.390625 0 L 1.390625 -15.953125 L 8.671875 -15.953125 C 9.753906 -15.953125 10.738281 -15.710938 11.625 -15.234375 C 12.519531 -14.765625 13.226562 -14.113281 13.75 -13.28125 C 14.269531 -12.445312 14.53125 -11.484375 14.53125 -10.390625 C 14.53125 -9.367188 14.285156 -8.453125 13.796875 -7.640625 C 13.316406 -6.828125 12.679688 -6.171875 11.890625 -5.671875 L 13.171875 -3.515625 C 13.242188 -3.398438 13.328125 -3.3125 13.421875 -3.25 C 13.523438 -3.195312 13.660156 -3.171875 13.828125 -3.171875 L 15.234375 -3.171875 L 15.234375 0 L 13.015625 0 C 12.328125 0 11.703125 -0.160156 11.140625 -0.484375 C 10.578125 -0.816406 10.132812 -1.25 9.8125 -1.78125 L 8.109375 -4.8125 C 8.003906 -4.8125 7.894531 -4.8125 7.78125 -4.8125 C 7.664062 -4.8125 7.546875 -4.8125 7.421875 -4.8125 L 5.21875 -4.8125 L 5.21875 0 Z M 5.21875 -7.96875 L 8.25 -7.96875 C 8.6875 -7.96875 9.09375 -8.0625 9.46875 -8.25 C 9.851562 -8.445312 10.15625 -8.722656 10.375 -9.078125 C 10.59375 -9.429688 10.703125 -9.859375 10.703125 -10.359375 C 10.703125 -10.867188 10.585938 -11.300781 10.359375 -11.65625 C 10.140625 -12.007812 9.84375 -12.28125 9.46875 -12.46875 C 9.09375 -12.65625 8.6875 -12.75 8.25 -12.75 L 5.21875 -12.75 Z M 5.21875 -7.96875 "/></g></g></g></g></g></g><g clip-path="url(#9836352c50)"><g transform="matrix(1, 0, 0, 1, 65, -0.000000000000001048)"><g clip-path="url(#65cf01a9e4)"><g fill="#222222" fill-opacity="1"><g transform="translate(0.729038, 23.879936)"><g><path d="M 11.9375 4.609375 C 11.070312 4.609375 10.328125 4.453125 9.703125 4.140625 C 9.078125 3.828125 8.601562 3.390625 8.28125 2.828125 C 7.957031 2.265625 7.796875 1.609375 7.796875 0.859375 C 7.796875 0.710938 7.800781 0.554688 7.8125 0.390625 C 7.820312 0.222656 7.835938 0.0507812 7.859375 -0.125 C 6.773438 -0.132812 5.789062 -0.335938 4.90625 -0.734375 C 4.019531 -1.128906 3.253906 -1.664062 2.609375 -2.34375 C 1.972656 -3.019531 1.476562 -3.804688 1.125 -4.703125 C 0.78125 -5.597656 0.609375 -6.550781 0.609375 -7.5625 C 0.609375 -8.601562 0.785156 -9.578125 1.140625 -10.484375 C 1.503906 -11.390625 2.019531 -12.179688 2.6875 -12.859375 C 3.363281 -13.546875 4.171875 -14.082031 5.109375 -14.46875 C 6.054688 -14.851562 7.109375 -15.046875 8.265625 -15.046875 C 9.421875 -15.046875 10.46875 -14.863281 11.40625 -14.5 C 12.351562 -14.132812 13.164062 -13.613281 13.84375 -12.9375 C 14.519531 -12.257812 15.035156 -11.476562 15.390625 -10.59375 C 15.753906 -9.707031 15.9375 -8.738281 15.9375 -7.6875 L 15.9375 0.4375 C 15.9375 1.1875 15.789062 1.878906 15.5 2.515625 C 15.21875 3.148438 14.78125 3.65625 14.1875 4.03125 C 13.59375 4.414062 12.84375 4.609375 11.9375 4.609375 Z M 11.75 1.578125 C 12.019531 1.578125 12.226562 1.46875 12.375 1.25 C 12.519531 1.039062 12.59375 0.757812 12.59375 0.40625 L 12.59375 -3.046875 C 12.300781 -2.785156 12.046875 -2.519531 11.828125 -2.25 C 11.609375 -1.988281 11.4375 -1.710938 11.3125 -1.421875 C 11.1875 -1.140625 11.085938 -0.84375 11.015625 -0.53125 C 10.953125 -0.226562 10.921875 0.0820312 10.921875 0.40625 C 10.921875 0.65625 10.957031 0.867188 11.03125 1.046875 C 11.101562 1.222656 11.207031 1.351562 11.34375 1.4375 C 11.476562 1.53125 11.613281 1.578125 11.75 1.578125 Z M 8.140625 -3.125 C 8.296875 -3.125 8.4375 -3.128906 8.5625 -3.140625 C 8.695312 -3.160156 8.835938 -3.1875 8.984375 -3.21875 C 9.234375 -3.59375 9.523438 -3.96875 9.859375 -4.34375 C 10.203125 -4.71875 10.585938 -5.082031 11.015625 -5.4375 C 11.441406 -5.789062 11.90625 -6.117188 12.40625 -6.421875 L 12.40625 -7.796875 C 12.40625 -8.398438 12.300781 -8.960938 12.09375 -9.484375 C 11.894531 -10.015625 11.609375 -10.46875 11.234375 -10.84375 C 10.859375 -11.226562 10.421875 -11.523438 9.921875 -11.734375 C 9.421875 -11.941406 8.875 -12.046875 8.28125 -12.046875 C 7.695312 -12.046875 7.148438 -11.9375 6.640625 -11.71875 C 6.140625 -11.5 5.703125 -11.1875 5.328125 -10.78125 C 4.960938 -10.375 4.675781 -9.898438 4.46875 -9.359375 C 4.269531 -8.816406 4.171875 -8.226562 4.171875 -7.59375 C 4.171875 -6.957031 4.265625 -6.367188 4.453125 -5.828125 C 4.640625 -5.296875 4.910156 -4.828125 5.265625 -4.421875 C 5.628906 -4.023438 6.050781 -3.710938 6.53125 -3.484375 C 7.019531 -3.265625 7.554688 -3.144531 8.140625 -3.125 Z M 8.140625 -3.125 "/></g></g></g><g fill="#222222" fill-opacity="1"><g transform="translate(14.235325, 23.879936)"><g/></g></g><g clip-path="url(#9a51d4fbe0)"><g fill="#222222" fill-opacity="1"><g transform="translate(16.43303, 23.879936)"><g><path d="M 2.828125 0.25 C 2.265625 0.25 1.78125 0.0507812 1.375 -0.34375 C 0.976562 -0.75 0.78125 -1.226562 0.78125 -1.78125 C 0.78125 -2.34375 0.976562 -2.820312 1.375 -3.21875 C 1.78125 -3.625 2.265625 -3.828125 2.828125 -3.828125 C 3.378906 -3.828125 3.851562 -3.625 4.25 -3.21875 C 4.65625 -2.820312 4.859375 -2.34375 4.859375 -1.78125 C 4.859375 -1.40625 4.765625 -1.0625 4.578125 -0.75 C 4.398438 -0.445312 4.160156 -0.203125 3.859375 -0.015625 C 3.554688 0.160156 3.210938 0.25 2.828125 0.25 Z M 2.828125 0.25 "/></g></g></g></g></g></g></g></svg>