<?xml version="1.0" encoding="UTF-8"?>
<svg fill="#4717F6" width="1200pt" height="1200pt" version="1.1" viewBox="0 0 1200 1200" xmlns="http://www.w3.org/2000/svg">
 <g>
  <path d="m1128.8 362.1c-27.375-64.727-66.523-122.77-116.4-172.65s-108-89.023-172.65-116.4c-67.051-28.352-138.15-42.75-211.5-42.75s-144.45 14.398-211.5 42.75c-64.727 27.375-122.77 66.523-172.65 116.4s-89.023 108-116.4 172.65c-26.625 62.926-40.875 129.45-42.523 198h-43.133c-5.25 0-9.9766 3-12.227 7.7266s-1.5 10.273 1.8008 14.324l98.625 119.77c2.5508 3.1484 6.375 4.9492 10.426 4.9492s7.875-1.8008 10.426-4.9492l98.625-119.77c3.3008-4.0508 4.0508-9.6016 1.8008-14.324-2.25-4.7266-6.9766-7.7266-12.227-7.7266h-42.676c7.125-231.82 198-418.27 431.55-418.27 238.05 0 431.77 193.73 431.77 431.77 0 238.05-193.73 431.77-431.77 431.77-7.4258 0-13.5 6.0742-13.5 13.5v84.523c0 3.6016 1.4258 7.0508 3.9766 9.5234 2.5508 2.5508 6 3.9766 9.5234 3.9766 73.352 0 144.45-14.398 211.5-42.75 64.727-27.375 122.77-66.523 172.65-116.4s89.023-108 116.4-172.65c28.352-67.051 42.75-138.15 42.75-211.5 0.003906-73.352-14.32-144.53-42.672-211.5zm-24.824 412.5c-26.023 61.5-63.227 116.7-110.62 164.1-47.398 47.398-102.6 84.602-164.1 110.62-59.551 25.199-122.55 38.773-187.5 40.426v-57.602c246.75-7.125 445.27-210.15 445.27-458.55 0-252.98-205.8-458.77-458.77-458.77-252.97-0.003906-458.77 205.8-458.77 458.77 0 7.4258 6.0742 13.5 13.5 13.5h27.75l-70.051 85.051-70.051-85.051h27.75c7.4258 0 13.5-6.0742 13.5-13.5 0-69.676 13.648-137.32 40.574-201 26.023-61.5 63.227-116.7 110.62-164.1 47.398-47.398 102.6-84.602 164.1-110.62 63.676-26.926 131.32-40.574 201-40.574s137.32 13.648 201 40.574c61.5 26.023 116.7 63.227 164.1 110.62 47.398 47.398 84.602 102.6 110.62 164.1 26.926 63.676 40.574 131.32 40.574 201 0 69.672-13.574 137.32-40.5 201z"/>
  <path d="m672.68 800.85v-38.625c21.824-4.875 42.824-13.574 61.727-25.574l27.301 27.301c2.5508 2.5508 6 3.9766 9.5234 3.9766 3.6016 0 7.0508-1.4258 9.5234-3.9766l40.875-40.875c5.25-5.25 5.25-13.801 0-19.125l-27.301-27.301c12-18.898 20.699-39.898 25.574-61.727h38.625c7.4258 0 13.5-6.0742 13.5-13.5v-57.824c0-7.4258-6.0742-13.5-13.5-13.5h-38.625c-4.875-21.824-13.574-42.824-25.574-61.727l27.301-27.301c5.25-5.25 5.25-13.801 0-19.125l-40.875-40.875c-2.5508-2.5508-6-3.9766-9.5234-3.9766-3.5234 0-7.0508 1.4258-9.5234 3.9766l-27.301 27.301c-18.898-12-39.898-20.699-61.727-25.574v-38.625c0-7.4258-6.0742-13.5-13.5-13.5h-57.824c-7.4258 0-13.5 6.0742-13.5 13.5v38.625c-21.824 4.875-42.824 13.574-61.727 25.574l-27.375-27.375c-2.5508-2.5508-6-3.9766-9.5234-3.9766-3.5234 0-7.0508 1.4258-9.5234 3.9766l-40.953 40.875c-5.25 5.25-5.25 13.801 0 19.125l27.301 27.301c-12 18.898-20.699 39.898-25.574 61.727h-38.625c-7.4258 0-13.5 6.0742-13.5 13.5v57.824c0 7.4258 6.0742 13.5 13.5 13.5h38.625c4.875 21.824 13.574 42.824 25.574 61.727l-27.301 27.297c-2.5508 2.5508-3.9766 6-3.9766 9.5234 0 3.6016 1.4258 7.0508 3.9766 9.5234l40.875 40.875c2.5508 2.5508 6 3.9766 9.5234 3.9766 3.5234 0 7.0508-1.4258 9.5234-3.9766l27.301-27.301c18.898 12 39.898 20.699 61.727 25.574v38.625c0 7.4258 6.0742 13.5 13.5 13.5h57.824c7.5781 0.15625 13.652-5.8438 13.652-13.344zm-27-49.727v36.301h-30.824v-36.301c0-6.6016-4.8008-12.301-11.324-13.352-25.5-4.125-50.102-14.324-71.176-29.477-5.3984-3.8984-12.75-3.3008-17.477 1.4258l-25.648 25.648-21.824-21.824 25.648-25.648c4.6484-4.6484 5.25-12.074 1.4258-17.477-15.227-21-25.426-45.602-29.477-71.176-1.0508-6.5234-6.6758-11.324-13.352-11.324h-36.301v-30.824h36.301c6.6016 0 12.301-4.8008 13.352-11.324 4.125-25.5 14.324-50.102 29.477-71.176 3.8984-5.3984 3.3008-12.75-1.4258-17.477l-25.648-25.648 21.824-21.824 25.648 25.648c4.6484 4.6484 12.074 5.25 17.477 1.4258 21-15.227 45.602-25.426 71.176-29.477 6.5234-1.0508 11.324-6.6758 11.324-13.352v-36.301h30.824v36.301c0 6.6016 4.8008 12.301 11.324 13.352 25.5 4.125 50.102 14.324 71.176 29.477 5.3984 3.8984 12.75 3.3008 17.477-1.4258l25.648-25.648 21.824 21.824-25.648 25.648c-4.6484 4.6484-5.25 12.074-1.4258 17.477 15.227 21 25.426 45.602 29.477 71.176 1.0508 6.5234 6.6758 11.324 13.352 11.324h36.301v30.824h-36.301c-6.6016 0-12.301 4.8008-13.352 11.324-4.125 25.5-14.324 50.176-29.477 71.176-3.8984 5.3984-3.3008 12.75 1.4258 17.477l25.648 25.648-21.824 21.824-25.648-25.648c-4.6484-4.6484-12.074-5.25-17.477-1.4258-21 15.227-45.602 25.426-71.176 29.477-6.5234 1.0508-11.324 6.6758-11.324 13.352z"/>
  <path d="m630.23 456.3c-64.051 0-116.18 52.125-116.18 116.18 0 64.051 52.125 116.18 116.18 116.18 64.051 0 116.18-52.125 116.18-116.18-0.003906-64.051-52.129-116.18-116.18-116.18zm0 205.35c-49.199 0-89.176-39.977-89.176-89.176 0-49.199 39.977-89.176 89.176-89.176 49.199 0 89.176 39.977 89.176 89.176-0.003906 49.203-39.977 89.176-89.176 89.176z"/>
  <path d="m313.65 758.1c-54.977 0-106.65 21.375-145.57 60.301-38.852 38.852-60.301 90.602-60.301 145.57 0 54.977 21.375 106.65 60.301 145.57 38.852 38.852 90.602 60.301 145.57 60.301 54.977 0 106.65-21.375 145.57-60.301 38.852-38.852 60.301-90.602 60.301-145.57 0-54.977-21.523-106.73-60.375-145.65-38.848-38.848-90.523-60.223-145.5-60.223zm0 384.6c-98.625 0-178.8-80.25-178.8-178.8 0-98.551 80.25-178.8 178.8-178.8 98.625 0 178.8 80.25 178.8 178.8 0 98.551-80.25 178.8-178.8 178.8z"/>
  <path d="m313.65 809.62c-41.176 0-79.949 16.051-109.05 45.148-29.102 29.102-45.148 67.875-45.148 109.05s16.051 79.949 45.148 109.05c29.102 29.102 67.875 45.148 109.05 45.148 41.176 0 79.949-16.051 109.05-45.148 29.102-29.102 45.148-67.875 45.148-109.05s-16.051-79.949-45.148-109.05c-29.098-29.098-67.875-45.148-109.05-45.148zm89.926 244.27c-20.852 20.852-47.625 33.523-76.5 36.523v-18.75c0-7.4258-6.0742-13.5-13.5-13.5s-13.5 6.0742-13.5 13.5v18.75c-28.875-3-55.648-15.75-76.5-36.523-20.852-20.852-33.523-47.625-36.523-76.5h18.75c7.4258 0 13.5-6.0742 13.5-13.5 0-7.4258-6.0742-13.5-13.5-13.5h-18.75c3-28.875 15.75-55.648 36.523-76.5 20.852-20.852 47.625-33.523 76.5-36.523v18.75c0 7.4258 6.0742 13.5 13.5 13.5s13.5-6.0742 13.5-13.5v-18.75c28.875 3 55.648 15.75 76.5 36.523 20.852 20.852 33.523 47.625 36.523 76.5h-18.75c-7.4258 0-13.5 6.0742-13.5 13.5 0 7.4258 6.0742 13.5 13.5 13.5h18.75c-2.9961 28.875-15.672 55.652-36.523 76.5z"/>
  <path d="m327.15 958.27v-53.324c0-7.4258-6.0742-13.5-13.5-13.5-7.4258 0-13.5 6.0742-13.5 13.5v58.949c0 3.6016 1.4258 7.0508 3.9766 9.5234l47.625 47.625c2.625 2.625 6.0742 3.9766 9.5234 3.9766 3.4492 0 6.8984-1.3516 9.5234-3.9766 5.25-5.25 5.25-13.801 0-19.125z"/>
 </g>
</svg>
